<svg width="130" height="56" viewBox="0 0 130 56" fill="none" xmlns="http://www.w3.org/2000/svg">
<path d="M75.2734 21.8668C75.2734 32.6876 66.543 41.4596 55.7734 41.4596C45.0039 41.4596 36.2734 32.6876 36.2734 21.8668C36.2734 11.046 45.0039 2.27405 55.7734 2.27405C66.543 2.27405 75.2734 11.046 75.2734 21.8668ZM42.3061 21.8668C42.3061 29.34 48.3357 35.3982 55.7734 35.3982C63.2112 35.3982 69.2407 29.34 69.2407 21.8668C69.2407 14.3937 63.2112 8.33545 55.7734 8.33545C48.3357 8.33545 42.3061 14.3937 42.3061 21.8668Z" fill="white"/>
<mask id="path-2-outside-1_29565_749" maskUnits="userSpaceOnUse" x="51.2734" y="0.274048" width="43" height="43" fill="black">
<rect fill="white" x="51.2734" y="0.274048" width="43" height="43"/>
<path d="M92.2734 21.8668C92.2734 32.6876 83.543 41.4596 72.7734 41.4596C62.0039 41.4596 53.2734 32.6876 53.2734 21.8668C53.2734 11.046 62.0039 2.27405 72.7734 2.27405C83.543 2.27405 92.2734 11.046 92.2734 21.8668ZM59.3061 21.8668C59.3061 29.34 65.3357 35.3982 72.7734 35.3982C80.2112 35.3982 86.2407 29.34 86.2407 21.8668C86.2407 14.3937 80.2112 8.33545 72.7734 8.33545C65.3357 8.33545 59.3061 14.3937 59.3061 21.8668Z"/>
</mask>
<path d="M92.2734 21.8668C92.2734 32.6876 83.543 41.4596 72.7734 41.4596C62.0039 41.4596 53.2734 32.6876 53.2734 21.8668C53.2734 11.046 62.0039 2.27405 72.7734 2.27405C83.543 2.27405 92.2734 11.046 92.2734 21.8668ZM59.3061 21.8668C59.3061 29.34 65.3357 35.3982 72.7734 35.3982C80.2112 35.3982 86.2407 29.34 86.2407 21.8668C86.2407 14.3937 80.2112 8.33545 72.7734 8.33545C65.3357 8.33545 59.3061 14.3937 59.3061 21.8668Z" fill="white"/>
<path d="M92.2734 21.8668C92.2734 32.6876 83.543 41.4596 72.7734 41.4596C62.0039 41.4596 53.2734 32.6876 53.2734 21.8668C53.2734 11.046 62.0039 2.27405 72.7734 2.27405C83.543 2.27405 92.2734 11.046 92.2734 21.8668ZM59.3061 21.8668C59.3061 29.34 65.3357 35.3982 72.7734 35.3982C80.2112 35.3982 86.2407 29.34 86.2407 21.8668C86.2407 14.3937 80.2112 8.33545 72.7734 8.33545C65.3357 8.33545 59.3061 14.3937 59.3061 21.8668Z" stroke="#615B5B" stroke-width="2.8" mask="url(#path-2-outside-1_29565_749)"/>
<mask id="path-3-outside-2_29565_749" maskUnits="userSpaceOnUse" x="34.2734" y="3.27405" width="43" height="40" fill="black">
<rect fill="white" x="34.2734" y="3.27405" width="43" height="40"/>
<path d="M75.0138 25.0533C74.4883 28.2567 73.1788 31.2786 71.2029 33.8475C69.2271 36.4164 66.6469 38.4517 63.6942 39.7704C60.7416 41.0892 57.509 41.6501 54.2872 41.4026C51.0654 41.1552 47.9553 40.1072 45.2364 38.3528C42.5175 36.5985 40.2752 34.1928 38.7109 31.352C37.1466 28.5113 36.3094 25.3244 36.2746 22.078C36.2397 18.8316 37.0084 15.6274 38.5113 12.7534C40.0143 9.87938 42.2046 7.42569 44.8851 5.61287L48.2536 10.6413C46.4023 11.8933 44.8897 13.5879 43.8517 15.5728C42.8137 17.5577 42.2829 19.7706 42.3069 22.0127C42.331 24.2548 42.9092 26.4557 43.9895 28.4176C45.0699 30.3795 46.6185 32.041 48.4962 33.2526C50.374 34.4642 52.5219 35.1879 54.747 35.3588C56.9721 35.5297 59.2046 35.1424 61.2438 34.2316C63.283 33.3208 65.0649 31.9152 66.4295 30.1411C67.7941 28.3669 68.6985 26.2798 69.0614 24.0675L75.0138 25.0533Z"/>
</mask>
<path d="M75.0138 25.0533C74.4883 28.2567 73.1788 31.2786 71.2029 33.8475C69.2271 36.4164 66.6469 38.4517 63.6942 39.7704C60.7416 41.0892 57.509 41.6501 54.2872 41.4026C51.0654 41.1552 47.9553 40.1072 45.2364 38.3528C42.5175 36.5985 40.2752 34.1928 38.7109 31.352C37.1466 28.5113 36.3094 25.3244 36.2746 22.078C36.2397 18.8316 37.0084 15.6274 38.5113 12.7534C40.0143 9.87938 42.2046 7.42569 44.8851 5.61287L48.2536 10.6413C46.4023 11.8933 44.8897 13.5879 43.8517 15.5728C42.8137 17.5577 42.2829 19.7706 42.3069 22.0127C42.331 24.2548 42.9092 26.4557 43.9895 28.4176C45.0699 30.3795 46.6185 32.041 48.4962 33.2526C50.374 34.4642 52.5219 35.1879 54.747 35.3588C56.9721 35.5297 59.2046 35.1424 61.2438 34.2316C63.283 33.3208 65.0649 31.9152 66.4295 30.1411C67.7941 28.3669 68.6985 26.2798 69.0614 24.0675L75.0138 25.0533Z" fill="white"/>
<path d="M75.0138 25.0533C74.4883 28.2567 73.1788 31.2786 71.2029 33.8475C69.2271 36.4164 66.6469 38.4517 63.6942 39.7704C60.7416 41.0892 57.509 41.6501 54.2872 41.4026C51.0654 41.1552 47.9553 40.1072 45.2364 38.3528C42.5175 36.5985 40.2752 34.1928 38.7109 31.352C37.1466 28.5113 36.3094 25.3244 36.2746 22.078C36.2397 18.8316 37.0084 15.6274 38.5113 12.7534C40.0143 9.87938 42.2046 7.42569 44.8851 5.61287L48.2536 10.6413C46.4023 11.8933 44.8897 13.5879 43.8517 15.5728C42.8137 17.5577 42.2829 19.7706 42.3069 22.0127C42.331 24.2548 42.9092 26.4557 43.9895 28.4176C45.0699 30.3795 46.6185 32.041 48.4962 33.2526C50.374 34.4642 52.5219 35.1879 54.747 35.3588C56.9721 35.5297 59.2046 35.1424 61.2438 34.2316C63.283 33.3208 65.0649 31.9152 66.4295 30.1411C67.7941 28.3669 68.6985 26.2798 69.0614 24.0675L75.0138 25.0533Z" stroke="#615B5B" stroke-width="2.8" mask="url(#path-3-outside-2_29565_749)"/>
<path d="M75.1085 19.3241C75.5899 23.0195 75.0123 26.7763 73.4435 30.1535C71.8746 33.5307 69.3797 36.3883 66.2513 38.3909C63.123 40.3935 59.491 41.458 55.7817 41.4596C52.0724 41.4612 48.4396 40.3997 45.3095 38.3998C42.1795 36.3999 39.6821 33.5444 38.1104 30.1686C36.5387 26.7927 35.9579 23.0365 36.4362 19.3406C36.9145 15.6447 38.432 12.1626 40.8106 9.3028C43.1892 6.44301 46.3303 4.32419 49.8653 3.19498L51.6931 8.97148C49.2517 9.75134 47.0824 11.2147 45.4396 13.1897C43.7969 15.1648 42.7489 17.5697 42.4186 20.1221C42.0882 22.6746 42.4894 25.2688 43.5748 27.6003C44.6603 29.9317 46.3851 31.9038 48.5468 33.285C50.7085 34.6662 53.2174 35.3993 55.7792 35.3982C58.3409 35.3971 60.8493 34.6619 63.0098 33.2788C65.1703 31.8958 66.8934 29.9222 67.9769 27.5898C69.0604 25.2574 69.4593 22.6629 69.1268 20.1107L75.1085 19.3241Z" fill="white"/>
<path d="M36 2V41.1856H28.9412L8.29947 14.4942H7.93583V41.1856H0V2H7.1016L27.7219 28.7105H28.107V2H36Z" fill="white"/>
<path d="M92 2H100.032L110.788 30.3942H111.212L121.968 2H130V41.1856H123.702V14.2646H123.366L113.353 41.0708H108.647L98.6341 14.2072H98.298V41.1856H92V2Z" fill="white"/>
<path d="M98.9043 55.9001V48.5928H100.222V51.9503H100.311L103.148 48.5928H104.757L101.944 51.8718L104.781 55.9001H103.198L101.028 52.7674L100.222 53.7236V55.9001H98.9043Z" fill="white"/>
<path d="M87.5215 55.9001V48.5928H90.2488C90.8075 48.5928 91.2762 48.6903 91.655 48.8854C92.0362 49.0804 92.3238 49.354 92.5179 49.706C92.7144 50.0557 92.8127 50.4636 92.8127 50.9298C92.8127 51.3984 92.7132 51.8052 92.5144 52.1501C92.3179 52.4926 92.0279 52.7579 91.6444 52.9458C91.2608 53.1313 90.7897 53.2241 90.231 53.2241H88.2885V52.1251H90.0534C90.3801 52.1251 90.6477 52.0799 90.856 51.9895C91.0643 51.8968 91.2182 51.7624 91.3176 51.5864C91.4194 51.408 91.4703 51.1891 91.4703 50.9298C91.4703 50.6706 91.4194 50.4493 91.3176 50.2662C91.2158 50.0806 91.0608 49.9403 90.8525 49.8452C90.6441 49.7476 90.3754 49.6989 90.0463 49.6989H88.839V55.9001H87.5215ZM91.2786 52.589L93.079 55.9001H91.6088L89.8404 52.589H91.2786Z" fill="white"/>
<path d="M81.3942 52.2465C81.3942 53.0338 81.2474 53.7082 80.9538 54.2696C80.6626 54.8286 80.2649 55.2567 79.7607 55.5541C79.2588 55.8514 78.6894 56.0001 78.0526 56.0001C77.4157 56.0001 76.8452 55.8514 76.3409 55.5541C75.839 55.2543 75.4413 54.825 75.1477 54.266C74.8565 53.7046 74.7109 53.0315 74.7109 52.2465C74.7109 51.4591 74.8565 50.786 75.1477 50.227C75.4413 49.6656 75.839 49.2363 76.3409 48.9389C76.8452 48.6416 77.4157 48.4929 78.0526 48.4929C78.6894 48.4929 79.2588 48.6416 79.7607 48.9389C80.2649 49.2363 80.6626 49.6656 80.9538 50.227C81.2474 50.786 81.3942 51.4591 81.3942 52.2465ZM80.0696 52.2465C80.0696 51.6923 79.9832 51.2248 79.8104 50.8443C79.6399 50.4613 79.4032 50.1723 79.1001 49.9772C78.7971 49.7798 78.4479 49.6811 78.0526 49.6811C77.6572 49.6811 77.308 49.7798 77.005 49.9772C76.7019 50.1723 76.464 50.4613 76.2912 50.8443C76.1207 51.2248 76.0355 51.6923 76.0355 52.2465C76.0355 52.8007 76.1207 53.2693 76.2912 53.6523C76.464 54.0329 76.7019 54.3219 77.005 54.5193C77.308 54.7144 77.6572 54.8119 78.0526 54.8119C78.4479 54.8119 78.7971 54.7144 79.1001 54.5193C79.4032 54.3219 79.6399 54.0329 79.8104 53.6523C79.9832 53.2693 80.0696 52.8007 80.0696 52.2465Z" fill="white"/>
<path d="M61.4783 55.9001L59.4258 48.5928H60.8427L62.1531 53.9627H62.2205L63.6197 48.5928H64.9087L66.3114 53.9662H66.3754L67.6857 48.5928H69.1026L67.0501 55.9001H65.7504L64.2944 50.7728H64.2376L62.7781 55.9001H61.4783Z" fill="white"/>
<path d="M48.1465 49.7024V48.5928H53.949V49.7024H51.7012V55.9001H50.3944V49.7024H48.1465Z" fill="white"/>
<path d="M37.5098 55.9001V48.5928H42.2399V49.7024H38.8272V51.6863H41.9949V52.7959H38.8272V54.7904H42.2683V55.9001H37.5098Z" fill="white"/>
<path d="M31.1953 48.5928V55.9001H30.0234L26.5966 50.9227H26.5362V55.9001H25.2188V48.5928H26.3977L29.821 53.5737H29.8849V48.5928H31.1953Z" fill="white"/>
<circle cx="19.2211" cy="52.5119" r="1.00238" fill="white"/>
<circle cx="110.78" cy="52.5119" r="1.00238" fill="white"/>
</svg>
